<mxfile host="app.diagrams.net" agent="Mozilla/5.0 (Windows NT 10.0; Win64; x64) AppleWebKit/537.36 (KHTML, like Gecko) Chrome/129.0.0.0 Safari/537.36" version="24.7.17">
  <diagram name="Page-1" id="mwEc2EFECtd3UlV8roL-">
    <mxGraphModel dx="794" dy="446" grid="1" gridSize="10" guides="1" tooltips="1" connect="1" arrows="1" fold="1" page="1" pageScale="1" pageWidth="827" pageHeight="1169" math="0" shadow="0">
      <root>
        <mxCell id="0" />
        <mxCell id="1" parent="0" />
        <mxCell id="8q0dSAqJb-i2mDZDOX9m-1" value="Mulai" style="rounded=1;whiteSpace=wrap;html=1;" vertex="1" parent="1">
          <mxGeometry x="354" y="40" width="120" height="60" as="geometry" />
        </mxCell>
        <mxCell id="8q0dSAqJb-i2mDZDOX9m-2" value="" style="endArrow=classic;html=1;rounded=0;" edge="1" parent="1">
          <mxGeometry width="50" height="50" relative="1" as="geometry">
            <mxPoint x="413" y="110" as="sourcePoint" />
            <mxPoint x="413" y="150" as="targetPoint" />
          </mxGeometry>
        </mxCell>
        <mxCell id="8q0dSAqJb-i2mDZDOX9m-3" value="Atur penghitung 0" style="shape=parallelogram;perimeter=parallelogramPerimeter;whiteSpace=wrap;html=1;fixedSize=1;" vertex="1" parent="1">
          <mxGeometry x="340" y="160" width="140" height="60" as="geometry" />
        </mxCell>
        <mxCell id="8q0dSAqJb-i2mDZDOX9m-4" value="" style="endArrow=classic;html=1;rounded=0;" edge="1" parent="1" target="8q0dSAqJb-i2mDZDOX9m-5">
          <mxGeometry width="50" height="50" relative="1" as="geometry">
            <mxPoint x="413" y="230" as="sourcePoint" />
            <mxPoint x="413" y="280" as="targetPoint" />
          </mxGeometry>
        </mxCell>
        <mxCell id="8q0dSAqJb-i2mDZDOX9m-5" value="Jika penghitung counter&amp;nbsp;&lt;div&gt;&amp;lt;9&lt;/div&gt;" style="rhombus;whiteSpace=wrap;html=1;" vertex="1" parent="1">
          <mxGeometry x="310" y="270" width="210" height="90" as="geometry" />
        </mxCell>
        <mxCell id="8q0dSAqJb-i2mDZDOX9m-7" value="" style="endArrow=classic;html=1;rounded=0;" edge="1" parent="1">
          <mxGeometry width="50" height="50" relative="1" as="geometry">
            <mxPoint x="414" y="370" as="sourcePoint" />
            <mxPoint x="414" y="420" as="targetPoint" />
          </mxGeometry>
        </mxCell>
        <mxCell id="8q0dSAqJb-i2mDZDOX9m-8" value="" style="endArrow=classic;html=1;rounded=0;" edge="1" parent="1">
          <mxGeometry width="50" height="50" relative="1" as="geometry">
            <mxPoint x="530" y="320" as="sourcePoint" />
            <mxPoint x="590" y="320" as="targetPoint" />
          </mxGeometry>
        </mxCell>
        <mxCell id="8q0dSAqJb-i2mDZDOX9m-9" value="Tidak&amp;nbsp;" style="text;html=1;align=center;verticalAlign=middle;resizable=0;points=[];autosize=1;strokeColor=none;fillColor=none;" vertex="1" parent="1">
          <mxGeometry x="530" y="288" width="60" height="30" as="geometry" />
        </mxCell>
        <mxCell id="8q0dSAqJb-i2mDZDOX9m-10" value="Iya" style="text;html=1;align=center;verticalAlign=middle;resizable=0;points=[];autosize=1;strokeColor=none;fillColor=none;" vertex="1" parent="1">
          <mxGeometry x="414" y="380" width="40" height="30" as="geometry" />
        </mxCell>
        <mxCell id="8q0dSAqJb-i2mDZDOX9m-11" value="Lanjut ke langkah 5" style="rounded=0;whiteSpace=wrap;html=1;" vertex="1" parent="1">
          <mxGeometry x="360" y="430" width="120" height="60" as="geometry" />
        </mxCell>
        <mxCell id="8q0dSAqJb-i2mDZDOX9m-12" value="Lanjut ke langkah 6" style="rounded=0;whiteSpace=wrap;html=1;" vertex="1" parent="1">
          <mxGeometry x="600" y="288" width="120" height="60" as="geometry" />
        </mxCell>
        <mxCell id="8q0dSAqJb-i2mDZDOX9m-13" value="" style="endArrow=classic;html=1;rounded=0;" edge="1" parent="1">
          <mxGeometry width="50" height="50" relative="1" as="geometry">
            <mxPoint x="414.5" y="500" as="sourcePoint" />
            <mxPoint x="415" y="560" as="targetPoint" />
          </mxGeometry>
        </mxCell>
        <mxCell id="8q0dSAqJb-i2mDZDOX9m-14" value="lalu tambahkan 1 ke counter, lalu kembali ke langkah 3" style="rounded=0;whiteSpace=wrap;html=1;" vertex="1" parent="1">
          <mxGeometry x="310" y="580" width="210" height="60" as="geometry" />
        </mxCell>
        <mxCell id="8q0dSAqJb-i2mDZDOX9m-15" value="" style="endArrow=classic;html=1;rounded=0;" edge="1" parent="1" target="8q0dSAqJb-i2mDZDOX9m-16">
          <mxGeometry width="50" height="50" relative="1" as="geometry">
            <mxPoint x="416" y="650" as="sourcePoint" />
            <mxPoint x="416" y="710" as="targetPoint" />
          </mxGeometry>
        </mxCell>
        <mxCell id="8q0dSAqJb-i2mDZDOX9m-16" value="Selesai" style="rounded=1;whiteSpace=wrap;html=1;" vertex="1" parent="1">
          <mxGeometry x="355" y="700" width="120" height="60" as="geometry" />
        </mxCell>
      </root>
    </mxGraphModel>
  </diagram>
</mxfile>
